# xmcd
#
# Track frame offsets:
#	150
#	13568
#	27280
#	40423
#	53068
#	67100
#	79775
#	92168
#	104033
#	118665
#
# Disc length: 1733 seconds
#
# Revision: 5
# Processed by: cddbd v1.5.2PL0 Copyright (c) Steve Scherf et al.
# Submitted via: audiograbber 1.83.01
#
DISCID=8406c30a
DTITLE=Various Artist - Billboard Top Country Hits - 1962
DYEAR=0
DGENRE=Oldies
TTITLE0=Claude King - Wolverton Mountain
TTITLE1=Patsy Cline - She's Got You
TTITLE2=Marty Robbins - Devil Woman
TTITLE3=Walter Brennan - Old Rivers
TTITLE4=Rex Allen - Don't Go Near the Indians
TTITLE5=Hank Snow - I've Been Everywhere
TTITLE6=Patsy Cline - Crazy
TTITLE7=George Jones - She Thinks I Still Care
TTITLE8=Jimmy Dean - P.T. 109
TTITLE9=Jim Reeves - Adios Amigo
EXTD=
EXTT0=Claude King\n
EXTT1=Patsy Cline\n
EXTT2=Marty Robbins\n
EXTT3=Walter Brennan\n
EXTT4=Rex Allen\n
EXTT5=Hank Snow\n
EXTT6=Patsy Cline\n
EXTT7=George Jones\n
EXTT8=Jimmy Dean\n
EXTT9=Jim Reeves\n
PLAYORDER=
